<svg xmlns="http://www.w3.org/2000/svg" x="0px" y="0px"
width="200" height="200"
viewBox="0 0 172 172"
style=" fill:#000000;"><g fill="none" fill-rule="nonzero" stroke="none" stroke-width="1" stroke-linecap="butt" stroke-linejoin="miter" stroke-miterlimit="10" stroke-dasharray="" stroke-dashoffset="0" font-family="none" font-weight="none" font-size="none" text-anchor="none" style="mix-blend-mode: normal"><path d="M0,172v-172h172v172z" fill="none"></path><g><path d="M169.3125,132.87v9.5675c0,2.96853 -2.40647,5.375 -5.375,5.375h-26.875l-1.34375,-15.61437l-29.885,-29.05187l10.02437,-19.51125l41.1725,26.5525c7.69192,4.97374 12.32091,13.52269 12.28188,22.6825z" fill="#e59db0"></path><path d="M96.02438,20.69375c11.90563,-5.375 19.29625,0 19.29625,0c6.95728,-0.55013 13.83818,1.75968 19.05438,6.39625c7.35101,6.03411 12.21319,14.57164 13.6525,23.9725c2.08443,8.51526 4.7055,16.89011 7.8475,25.07437l5.375,8.94938v4.48812l-24.1875,7.87438l-10.29312,-6.07375l-31.57812,3.14438l1.69312,-73.01938" fill="#f9e3ae"></path><path d="M145.125,139.75c-1.48427,0 -2.6875,-1.20323 -2.6875,-2.6875v-5.375c0,-1.48427 1.20323,-2.6875 2.6875,-2.6875c1.48427,0 2.6875,1.20323 2.6875,2.6875v5.375c0,1.48427 -1.20323,2.6875 -2.6875,2.6875zM158.5625,139.75c-1.48427,0 -2.6875,-1.20323 -2.6875,-2.6875v-5.375c0,-1.48427 1.20323,-2.6875 2.6875,-2.6875c1.48427,0 2.6875,1.20323 2.6875,2.6875v5.375c0,1.48427 -1.20323,2.6875 -2.6875,2.6875z" fill="#8d6c9f"></path><path d="M120.9375,111.61188l-34.9375,-20.23687h-32.25l-34.9375,20.23687c-9.97627,5.7598 -16.12279,16.40352 -16.125,27.92313v19.0275c0,2.96853 2.40647,5.375 5.375,5.375h123.625c2.96853,0 5.375,-2.40647 5.375,-5.375v-19.0275c-0.00221,-11.5196 -6.14873,-22.16332 -16.125,-27.92312z" fill="#c2cde7"></path><path d="M103.3075,47.38062c5.375,2.365 12.41625,5.21375 31.0675,4.70313l4.1925,11.09938v10.58875l-6.50375,9.16438l-11.12625,12.63125c0,0 -9.72875,6.71875 -15.10375,7.55188c-5.375,0.83312 -12.65812,-7.60563 -12.65812,-7.60563z" fill="#faefde"></path><path d="M97.5025,112.49875l-27.6275,13.81375l-27.6275,-13.81375c-2.31355,-1.15985 -3.92969,-3.3598 -4.34479,-5.91429c-0.41511,-2.55449 0.42129,-5.15298 2.24854,-6.98571l0.16125,-0.16125h59.125l0.16125,0.16125c1.82725,1.83273 2.66365,4.43122 2.24854,6.98571c-0.41511,2.55449 -2.03125,4.75444 -4.34479,5.91429z" fill="#d6dff2"></path><path d="M126.3125,150.5h-112.875c-5.93706,0 -10.75,4.81294 -10.75,10.75v0c0,1.48427 1.20323,2.6875 2.6875,2.6875h129c1.48427,0 2.6875,-1.20323 2.6875,-2.6875v0c0,-5.93706 -4.81294,-10.75 -10.75,-10.75z" fill="#acb7d0"></path><path d="M107.5,56.81375c-1.01058,-0.20098 -2.05873,0.04391 -2.87562,0.67188c-0.15153,-4.0468 -0.99694,-8.03751 -2.49938,-11.79812c-2.4725,-6.74562 7.14875,-2.6875 7.14875,-2.6875c-3.655,-16.90437 -15.88312,-29.5625 -36.71125,-29.5625h-2.6875c-6.6513,-0.01155 -13.17127,1.8513 -18.8125,5.375v0c-8.89563,0 -15.10375,6.04688 -16.125,16.125c-1.02125,10.07813 0.9675,15.91 0.59125,18.03313c-0.29357,1.49079 -0.49106,2.99889 -0.59125,4.515c-0.7691,-0.57611 -1.73777,-0.81828 -2.6875,-0.67187c-2.87562,0.77938 -3.95063,6.04688 -2.41875,11.77125c1.3975,5.375 4.54187,9.03 7.25625,9.03c4.75688,16.4475 17.65688,32.5725 32.7875,32.5725c15.13062,0 28.03063,-16.125 32.86813,-32.5725c2.6875,0 5.83188,-3.7625 7.25625,-9.03c1.53187,-5.75125 0.45687,-11.01875 -2.49938,-11.77125z" fill="#faefde"></path><path d="M36.30812,48.375c8.03102,-0.54504 14.95999,-5.83433 17.60312,-13.4375c8.0625,2.6875 10.75,10.75 48.375,8.0625c3.73562,-0.26875 4.3,1.04812 5.375,0c1.075,-1.04812 -1.935,-5.375 0,-5.18688c-5.07937,-15.56063 -17.54938,-24.37562 -34.77625,-24.37562h-2.84875c-6.40489,-0.02403 -12.6887,1.74475 -18.14062,5.10625c-0.48936,0.36462 -1.08287,0.56246 -1.69312,0.56438c-8.0625,0 -13.4375,5.375 -14.27062,14.48563c-0.47757,4.86944 -0.36025,9.77893 0.34938,14.62z" fill="#cda1a7"></path><path d="M158.5625,108.0375l-15.96375,-10.2125c6.42852,-1.65919 12.71831,-3.81569 18.8125,-6.45c1.43764,-0.64118 2.52196,-1.88034 2.96669,-3.39036c0.44473,-1.51001 0.20517,-3.13908 -0.65544,-4.45714l-4.6225,-7.04125c-2.42631,-3.71137 -4.1735,-7.82453 -5.16,-12.1475l-4.56875,-19.91437c-3.52087,-14.98354 -16.43252,-25.89787 -31.79313,-26.875c-2.10261,-1.37003 -4.55855,-2.0984 -7.06813,-2.09625c-4.92571,-0.21069 -9.84542,0.53776 -14.48562,2.20375c-6.93319,-4.64121 -15.11987,-7.05126 -23.46187,-6.90688h-2.6875c-6.90785,0.02863 -13.68536,1.88294 -19.64562,5.375c-9.91688,0.37625 -16.85063,7.4175 -17.97938,18.54375c-0.49068,5.01317 -0.36432,10.06761 0.37625,15.05c0.13947,0.88956 0.22027,1.78733 0.24188,2.6875l-0.24188,1.53187c-0.39034,0.00639 -0.77844,0.06055 -1.15562,0.16125c-2.65272,0.91048 -4.53185,3.28302 -4.81062,6.07375c-0.5114,2.99961 -0.34612,6.07558 0.48375,9.00313c1.45125,5.375 4.46125,9.37937 7.76687,10.75c1.74331,5.32478 4.2025,10.38782 7.31,15.05l-24.77875,14.32438c-10.79243,6.24381 -17.43943,17.76595 -17.44187,30.23437v19.0275c0,4.4528 3.6097,8.0625 8.0625,8.0625h123.625c4.4528,0 8.0625,-3.6097 8.0625,-8.0625v-8.0625h24.1875c4.4528,0 8.0625,-3.6097 8.0625,-8.0625v-9.5675c0.01862,-10.01985 -5.03943,-19.36713 -13.4375,-24.8325zM39.58688,76.8625c-0.34482,-1.18588 -1.45348,-1.98412 -2.6875,-1.935c-0.80625,0 -3.3325,-2.09625 -4.67625,-7.04125c-0.60063,-2.12287 -0.73811,-4.35001 -0.40313,-6.53062c0.29563,-1.37063 0.77937,-1.90812 0.91375,-1.96187c0.25849,0.06534 0.50391,0.17441 0.72563,0.3225c0.80238,0.53095 1.82739,0.59245 2.6875,0.16125c0.85983,-0.44455 1.41418,-1.31713 1.45125,-2.28438c0.05614,-1.38851 0.2088,-2.77143 0.45687,-4.13875c0.14105,-1.47185 0.06863,-2.95636 -0.215,-4.4075c-0.63688,-4.58743 -0.70908,-9.23563 -0.215,-13.84063c0.83313,-8.57312 5.88563,-13.70625 13.4375,-13.70625c0.58149,0 1.1473,-0.1886 1.6125,-0.5375c5.16331,-3.20022 11.12549,-4.87708 17.2,-4.8375h2.6875c16.31313,0 28.08438,8.33125 32.92188,23.05875c-1.80907,-0.34526 -3.67823,0.12695 -5.10625,1.29c-1.54032,1.6905 -1.84224,4.17057 -0.7525,6.18125c1.4162,3.4839 2.23394,7.18193 2.41875,10.93813c0.03707,0.96724 0.59142,1.83983 1.45125,2.28438c0.86011,0.4312 1.88512,0.3697 2.6875,-0.16125c0.22642,-0.13936 0.47046,-0.24782 0.72563,-0.3225c0.52332,0.5279 0.84642,1.2216 0.91375,1.96187c0.36122,2.17486 0.25124,4.40193 -0.3225,6.53063c-0.47573,1.94698 -1.34457,3.77611 -2.55313,5.375c-0.88687,1.12875 -1.72,1.66625 -2.12313,1.66625c-1.23402,-0.04912 -2.34268,0.74912 -2.6875,1.935c-1.62623,5.47048 -4.0728,10.66266 -7.25625,15.39937c-0.99042,1.51027 -2.0766,2.95553 -3.25187,4.32688c-5.40187,6.47688 -12.28187,10.91125 -19.75312,10.91125c-7.47125,0 -14.35125,-4.43438 -19.78,-10.91125c-1.17527,-1.37135 -2.26146,-2.8166 -3.25187,-4.32688c-3.18345,-4.73672 -5.63002,-9.92889 -7.25625,-15.39937zM134.375,158.5625c0,1.48427 -1.20323,2.6875 -2.6875,2.6875h-123.625c-1.48427,0 -2.6875,-1.20323 -2.6875,-2.6875v-19.0275c0.00048,-10.5501 5.62327,-20.30036 14.75438,-25.585l25.31625,-14.67375c6.50375,7.98188 15.02313,13.59875 24.42938,13.59875c9.40625,0 17.92563,-5.61688 24.42938,-13.59875l25.31625,14.67375c9.13111,5.28464 14.7539,15.0349 14.75437,25.585zM166.625,142.4375c0,1.48427 -1.20323,2.6875 -2.6875,2.6875h-24.1875v-5.59c-0.00245,-12.46843 -6.64944,-23.99057 -17.44188,-30.23437l-24.77875,-14.35125c3.09811,-4.66366 5.54823,-9.72664 7.28312,-15.05c3.30562,-1.23625 6.31562,-5.375 7.76687,-10.75c0.82987,-2.92754 0.99515,-6.00352 0.48375,-9.00313c-0.27877,-2.79073 -2.1579,-5.16327 -4.81063,-6.07375c-0.37679,-0.10263 -0.76513,-0.15682 -1.15563,-0.16125c-0.45541,-3.16865 -1.28538,-6.27204 -2.4725,-9.245v-0.29562c1.27341,0.15804 2.52041,0.48335 3.70875,0.9675c0.92083,0.37988 1.97625,0.21927 2.7424,-0.41731c0.76616,-0.63659 1.11737,-1.64472 0.9126,-2.61956c-1.58986,-7.86283 -5.4377,-15.09154 -11.0725,-20.80125c3.15187,-0.67169 6.3733,-0.96045 9.59438,-0.86c1.64806,0.0058 3.2503,0.54302 4.56875,1.53187c0.43556,0.32763 0.96044,0.51509 1.505,0.5375c13.3112,0.5766 24.59181,9.98627 27.54688,22.97813l4.56875,19.91438c1.12986,4.94589 3.13198,9.65089 5.9125,13.89437l4.6225,7.04125c-7.39904,3.22655 -15.11955,5.65892 -23.03188,7.25625l-5.56312,-3.57438c2.57762,-3.19294 4.53716,-6.8386 5.77812,-10.75c0.40999,-0.89445 1.04986,-1.66416 1.85437,-2.23062c2.33895,-2.16308 3.74587,-5.15037 3.92375,-8.33125c0.59359,-3.3156 -0.40119,-6.71773 -2.6875,-9.19125c-0.645,-0.59125 -0.7525,-0.91375 -0.77937,-1.075v-0.645c-0.18018,-2.19363 -0.53972,-4.36882 -1.075,-6.50375c-0.36482,-1.16452 -1.46845,-1.93706 -2.6875,-1.88125h-5.10625c-3.89747,-0.09119 -7.78072,-0.50469 -11.61,-1.23625c-1.48427,-0.26717 -2.90408,0.71948 -3.17125,2.20375c-0.26717,1.48427 0.71948,2.90408 2.20375,3.17125c4.20371,0.77117 8.4652,1.18473 12.73875,1.23625h3.01c0.18813,1.23625 0.34938,2.6875 0.45687,3.60125v0.645c0.25486,1.72926 1.14619,3.30107 2.49938,4.4075c0.92394,1.40158 1.24368,3.11651 0.88687,4.75687c-0.06127,1.7249 -0.74922,3.36832 -1.935,4.6225c-1.55407,1.16997 -2.76155,2.7397 -3.49375,4.54188c-2.44563,6.5575 -4.8375,11.12625 -15.10375,16.50125c-0.92404,0.3987 -1.54789,1.28026 -1.61654,2.2843c-0.06864,1.00405 0.42944,1.9623 1.29062,2.48305c0.86119,0.52075 1.94115,0.5167 2.79841,-0.01047c2.75421,-1.32965 5.37329,-2.9227 7.82062,-4.75688l28.94438,18.62438c6.85082,4.43368 11.00416,12.02289 11.04563,20.18313z" fill="#8d6c9f"></path><path d="M90.16563,113.17063l-20.29062,10.13188l-20.29062,-10.15875c-1.31948,-0.60607 -2.88177,-0.05448 -3.52822,1.24569c-0.64645,1.30017 -0.14328,2.87872 1.13635,3.56494l21.5,10.75c0.75335,0.37435 1.63852,0.37435 2.39187,0l21.5,-10.75c0.89047,-0.40902 1.48774,-1.27028 1.55868,-2.24761c0.07095,-0.97734 -0.39568,-1.91583 -1.21774,-2.44916c-0.82206,-0.53333 -1.86925,-0.57696 -2.73282,-0.11385zM110.1875,145.125c-1.48427,0 -2.6875,1.20323 -2.6875,2.6875v5.375c0,1.48427 1.20323,2.6875 2.6875,2.6875c1.48427,0 2.6875,-1.20323 2.6875,-2.6875v-5.375c0,-1.48427 -1.20323,-2.6875 -2.6875,-2.6875zM123.625,145.125c-1.48427,0 -2.6875,1.20323 -2.6875,2.6875v5.375c0,1.48427 1.20323,2.6875 2.6875,2.6875c1.48427,0 2.6875,-1.20323 2.6875,-2.6875v-5.375c0,-1.48427 -1.20323,-2.6875 -2.6875,-2.6875zM96.75,145.125c-1.48427,0 -2.6875,1.20323 -2.6875,2.6875v5.375c0,1.48427 1.20323,2.6875 2.6875,2.6875c1.48427,0 2.6875,-1.20323 2.6875,-2.6875v-5.375c0,-1.48427 -1.20323,-2.6875 -2.6875,-2.6875zM83.3125,145.125c-1.48427,0 -2.6875,1.20323 -2.6875,2.6875v5.375c0,1.48427 1.20323,2.6875 2.6875,2.6875c1.48427,0 2.6875,-1.20323 2.6875,-2.6875v-5.375c0,-1.48427 -1.20323,-2.6875 -2.6875,-2.6875zM69.875,145.125c-1.48427,0 -2.6875,1.20323 -2.6875,2.6875v5.375c0,1.48427 1.20323,2.6875 2.6875,2.6875c1.48427,0 2.6875,-1.20323 2.6875,-2.6875v-5.375c0,-1.48427 -1.20323,-2.6875 -2.6875,-2.6875zM56.4375,145.125c-1.48427,0 -2.6875,1.20323 -2.6875,2.6875v5.375c0,1.48427 1.20323,2.6875 2.6875,2.6875c1.48427,0 2.6875,-1.20323 2.6875,-2.6875v-5.375c0,-1.48427 -1.20323,-2.6875 -2.6875,-2.6875zM43,145.125c-1.48427,0 -2.6875,1.20323 -2.6875,2.6875v5.375c0,1.48427 1.20323,2.6875 2.6875,2.6875c1.48427,0 2.6875,-1.20323 2.6875,-2.6875v-5.375c0,-1.48427 -1.20323,-2.6875 -2.6875,-2.6875zM29.5625,145.125c-1.48427,0 -2.6875,1.20323 -2.6875,2.6875v5.375c0,1.48427 1.20323,2.6875 2.6875,2.6875c1.48427,0 2.6875,-1.20323 2.6875,-2.6875v-5.375c0,-1.48427 -1.20323,-2.6875 -2.6875,-2.6875zM16.125,145.125c-1.48427,0 -2.6875,1.20323 -2.6875,2.6875v5.375c0,1.48427 1.20323,2.6875 2.6875,2.6875c1.48427,0 2.6875,-1.20323 2.6875,-2.6875v-5.375c0,-1.48427 -1.20323,-2.6875 -2.6875,-2.6875zM48.13313,45.6875c-0.98593,-0.00508 -1.88992,-0.54962 -2.35535,-1.41879c-0.46543,-0.86917 -0.41756,-1.92342 0.12472,-2.74683l4.3,-6.58438c1.48481,-2.26322 4.42093,-3.06921 6.85312,-1.88125l4.1925,2.0425c6.96407,3.4039 14.60861,5.1864 22.36,5.21375h6.85312c1.48427,0 2.6875,1.20323 2.6875,2.6875c0,1.48427 -1.20323,2.6875 -2.6875,2.6875h-6.85312c-8.56622,-0.00727 -17.01947,-1.95519 -24.725,-5.6975l-4.1925,-2.0425l-4.3,6.53063c-0.4997,0.7588 -1.34895,1.21376 -2.2575,1.20938z" fill="#8d6c9f"></path></g><g><g id="Layer_1"><circle cx="49.88372" cy="50.25581" transform="scale(2.6875,2.6875)" r="12" fill="#72caaf"></circle><path d="M150.1875,132.375h-13.4375v-13.4375c0,-1.4835 -1.204,-2.6875 -2.6875,-2.6875c-1.4835,0 -2.6875,1.204 -2.6875,2.6875v13.4375h-13.4375c-1.4835,0 -2.6875,1.204 -2.6875,2.6875c0,1.4835 1.204,2.6875 2.6875,2.6875h13.4375v13.4375c0,1.4835 1.204,2.6875 2.6875,2.6875c1.4835,0 2.6875,-1.204 2.6875,-2.6875v-13.4375h13.4375c1.4835,0 2.6875,-1.204 2.6875,-2.6875c0,-1.4835 -1.204,-2.6875 -2.6875,-2.6875z" fill="#f9efde"></path><path d="M134.0625,170c-19.264,0 -34.9375,-15.6735 -34.9375,-34.9375c0,-19.264 15.6735,-34.9375 34.9375,-34.9375c19.264,0 34.9375,15.6735 34.9375,34.9375c0,19.264 -15.6735,34.9375 -34.9375,34.9375zM134.0625,105.5c-16.29969,0 -29.5625,13.26281 -29.5625,29.5625c0,16.29969 13.26281,29.5625 29.5625,29.5625c16.29969,0 29.5625,-13.26281 29.5625,-29.5625c0,-16.29969 -13.26281,-29.5625 -29.5625,-29.5625z" fill="#8d6c9f"></path></g></g></g></svg>