<svg xmlns="http://www.w3.org/2000/svg" x="0px" y="0px"
width="200" height="200"
viewBox="0 0 172 172"
style=" fill:#000000;"><g fill="none" fill-rule="nonzero" stroke="none" stroke-width="1" stroke-linecap="butt" stroke-linejoin="miter" stroke-miterlimit="10" stroke-dasharray="" stroke-dashoffset="0" font-family="none" font-weight="none" font-size="none" text-anchor="none" style="mix-blend-mode: normal"><path d="M0,172v-172h172v172z" fill="none" stroke="none"></path><g stroke="none"><path d="M18.8125,48.375v77.9375c0,14.835 30.07312,26.875 67.1875,26.875c37.11438,0 67.1875,-12.04 67.1875,-26.875v-77.9375z" fill="#c2cde7"></path><path d="M37.625,48.375h-18.8125v77.9375c0,7.22938 7.17563,13.81375 18.8125,18.65125z" fill="#ced8ed"></path><path d="M112.875,48.375v102.58188c23.73063,-4.16563 40.3125,-13.62562 40.3125,-24.64437v-77.9375z" fill="#b5c4e0"></path><path d="M86,18.8125c-37.10663,0 -67.1875,12.03235 -67.1875,26.875c0,14.84265 30.08087,26.875 67.1875,26.875c37.10663,0 67.1875,-12.03235 67.1875,-26.875c0,-14.84265 -30.08087,-26.875 -67.1875,-26.875z" fill="#ced8ed"></path><path d="M86,16.125c-39.18375,0 -69.875,12.98063 -69.875,29.5625v80.625c0,16.58187 30.69125,29.5625 69.875,29.5625c39.18375,0 69.875,-12.98063 69.875,-29.5625v-80.625c0,-16.58187 -30.69125,-29.5625 -69.875,-29.5625zM150.5,72.5625c0,11.69062 -25.9075,24.1875 -64.5,24.1875c-38.5925,0 -64.5,-12.49688 -64.5,-24.1875v-15.29188c10.45438,10.75 35.07188,17.97938 64.5,17.97938c29.42813,0 54.04563,-7.31 64.5,-17.97938zM86,21.5c38.5925,0 64.5,12.49688 64.5,24.1875c0,11.69063 -25.9075,24.1875 -64.5,24.1875c-38.5925,0 -64.5,-12.49687 -64.5,-24.1875c0,-11.69063 25.9075,-24.1875 64.5,-24.1875zM86,150.5c-38.5925,0 -64.5,-12.49687 -64.5,-24.1875v-15.34562c8.62688,8.86875 27.09,15.53375 50.68625,17.46875h0.215c1.48427,0.05937 2.73563,-1.09573 2.795,-2.58c0.05937,-1.48427 -1.09573,-2.73563 -2.58,-2.795c-29.1325,-2.365 -51.11625,-12.55063 -51.11625,-23.62312v-15.29188c10.45438,10.75 35.07188,17.97938 64.5,17.97938c29.42813,0 54.04563,-7.31 64.5,-17.97938v15.29188c0,4.64937 -4.11187,9.46 -11.61,13.4375c-1.30615,0.74213 -1.76338,2.4026 -1.02125,3.70875c0.74213,1.30615 2.4026,1.76338 3.70875,1.02125c3.27575,-1.72067 6.28182,-3.91184 8.9225,-6.50375v15.21125c0,11.69063 -25.9075,24.1875 -64.5,24.1875z" fill="#8d6c9f"></path><path d="M54.23375,35.74375c0.21422,0.02589 0.43078,0.02589 0.645,0c10.19933,-2.38979 20.64591,-3.56255 31.12125,-3.49375c3.57437,0 7.12188,0 10.58875,0.34938c1.48427,0.09648 2.76571,-1.02855 2.86219,-2.51281c0.09648,-1.48427 -1.02855,-2.76571 -2.51281,-2.86219c-3.57437,-0.34938 -7.25625,-0.34938 -10.93812,-0.34938c-10.90798,-0.11231 -21.78988,1.08777 -32.41125,3.57438c-1.48427,0.17811 -2.54311,1.52573 -2.365,3.01c0.17811,1.48427 1.52573,2.54311 3.01,2.365zM108.70938,33.97c2.95625,0.48375 5.77812,1.04813 8.385,1.69313c1.43974,0.36364 2.90167,-0.5087 3.26531,-1.94844c0.36364,-1.43974 -0.5087,-2.90167 -1.94844,-3.26531c-2.6875,-0.69875 -5.72438,-1.29 -8.84188,-1.80062c-1.48427,-0.23748 -2.88002,0.77323 -3.1175,2.2575c-0.23748,1.48427 0.77323,2.88002 2.2575,3.1175zM86,118.25c-1.48427,0 -2.6875,1.20323 -2.6875,2.6875v5.375c0,1.48427 1.20323,2.6875 2.6875,2.6875c1.48427,0 2.6875,-1.20323 2.6875,-2.6875v-5.375c0,-1.48427 -1.20323,-2.6875 -2.6875,-2.6875zM99.4375,117.7125c-1.48427,0 -2.6875,1.20323 -2.6875,2.6875v5.375c0,1.48427 1.20323,2.6875 2.6875,2.6875c1.48427,0 2.6875,-1.20323 2.6875,-2.6875v-5.375c0,-1.48427 -1.20323,-2.6875 -2.6875,-2.6875zM112.875,115.83125c-1.48427,0 -2.6875,1.20323 -2.6875,2.6875v5.375c0,1.48427 1.20323,2.6875 2.6875,2.6875c1.48427,0 2.6875,-1.20323 2.6875,-2.6875v-5.375c0,-1.48427 -1.20323,-2.6875 -2.6875,-2.6875zM126.3125,112.875c-1.48427,0 -2.6875,1.20323 -2.6875,2.6875v5.375c0,1.48427 1.20323,2.6875 2.6875,2.6875c1.48427,0 2.6875,-1.20323 2.6875,-2.6875v-5.375c0,-1.48427 -1.20323,-2.6875 -2.6875,-2.6875z" fill="#8d6c9f"></path></g><g stroke="none"><g id="Layer_1"><circle cx="50.16104" cy="48.1399" transform="scale(2.68758,2.68758)" r="9.5" fill="#bbdef9"></circle><circle cx="50.16104" cy="48.1399" transform="scale(2.68758,2.68758)" r="5.5" fill="#d2edff"></circle><path d="M122.71759,152.22411l-13.97272,13.9109c-2.95096,2.95096 -7.73754,2.95096 -10.6885,0c-2.95096,-2.95096 -2.95096,-7.73754 0,-10.6885l13.9109,-13.97272z" fill="#cda1a7"></path><circle cx="46.66104" cy="45.6399" transform="scale(2.68758,2.68758)" r="2" fill="#f3f3f3"></circle><path d="M134.81169,101.16014c-15.56107,0 -28.21956,12.65849 -28.21956,28.21956c0,4.01793 0.85734,7.83429 2.37582,11.29589l-12.81437,12.86812c-3.99643,3.99374 -3.99643,10.49499 0,14.49142c1.99687,1.99956 4.62263,2.99665 7.24571,2.99665c2.62308,0 5.24615,-0.99709 7.24033,-2.99127l12.8735,-12.81706c3.46429,1.51848 7.28065,2.37582 11.29858,2.37582c15.56107,0 28.21956,-12.65849 28.21956,-28.21956c0,-15.56107 -12.65849,-28.21956 -28.21956,-28.21956zM106.84475,164.23489c-1.9028,1.90012 -4.99083,1.89743 -6.88826,0c-1.90012,-1.90012 -1.90012,-4.99083 0.00269,-6.89364l11.75278,-11.80384c1.89205,2.69833 4.24368,5.04727 6.93933,6.93933zM134.81169,152.22411c-12.59668,0 -22.84441,-10.24773 -22.84441,-22.84441c0,-12.59668 10.24773,-22.84441 22.84441,-22.84441c12.59668,0 22.84441,10.24773 22.84441,22.84441c0,12.59668 -10.24773,22.84441 -22.84441,22.84441zM152.27019,127.79403c0.13169,1.47817 -0.95678,2.78433 -2.43495,2.91871c-0.08331,0.00806 -0.16394,0.01075 -0.24457,0.01075c-1.37604,0 -2.54782,-1.05084 -2.67414,-2.4457c-0.5187,-5.7541 -5.24884,-10.48424 -11.00294,-11.00294c-1.47817,-0.13438 -2.56932,-1.44054 -2.43495,-2.91871c0.13438,-1.47817 1.42442,-2.55051 2.91871,-2.43495c8.43631,0.76058 15.11225,7.43653 15.87283,15.87283z" fill="#8d6c9f"></path></g></g><path d="M93.15625,171.03178v-69.87164h69.875v69.87164z" id="overlay-drag" fill="#ff0000" stroke="none" opacity="0"></path></g></svg>