<?xml version="1.0" encoding="UTF-8"?>
<svg xmlns="http://www.w3.org/2000/svg" xmlns:xlink="http://www.w3.org/1999/xlink" viewBox="0 0 35 35" width="35px" height="35px">
<g id="surface8099365">
<path style=" stroke:none;fill-rule:nonzero;fill:rgb(81.568629%,72.156864%,86.666667%);fill-opacity:1;" d="M 33.359375 32.472656 C 33.359375 32.777344 33.113281 33.019531 32.8125 33.019531 L 2.1875 33.019531 C 1.886719 33.019531 1.640625 32.777344 1.640625 32.472656 L 1.640625 28.097656 C 1.652344 26.144531 2.777344 24.363281 4.539062 23.515625 L 12.234375 19.835938 C 13.628906 21.589844 15.464844 22.84375 17.5 22.84375 C 19.535156 22.84375 21.371094 21.589844 22.765625 19.835938 L 30.460938 23.515625 C 32.226562 24.367188 33.351562 26.152344 33.359375 28.113281 Z M 33.359375 32.472656 "/>
<path style=" stroke:none;fill-rule:nonzero;fill:rgb(92.54902%,76.862746%,81.568629%);fill-opacity:1;" d="M 9.964844 22.453125 L 17.5 26.796875 L 25.035156 22.453125 C 25.484375 22.230469 25.839844 21.859375 26.046875 21.40625 L 22.765625 19.835938 C 21.371094 21.589844 19.535156 22.84375 17.5 22.84375 C 15.464844 22.84375 13.628906 21.589844 12.234375 19.835938 L 8.953125 21.40625 C 9.160156 21.859375 9.515625 22.230469 9.964844 22.453125 Z M 9.964844 22.453125 "/>
<path style=" stroke:none;fill-rule:nonzero;fill:rgb(60.784316%,58.823532%,74.509805%);fill-opacity:1;" d="M 31.171875 30.625 L 3.828125 30.625 C 2.621094 30.625 1.640625 31.605469 1.640625 32.8125 C 1.640625 33.113281 1.886719 33.359375 2.1875 33.359375 L 32.8125 33.359375 C 33.113281 33.359375 33.359375 33.113281 33.359375 32.8125 C 33.359375 31.605469 32.378906 30.625 31.171875 30.625 Z M 31.171875 30.625 "/>
<path style=" stroke:none;fill-rule:nonzero;fill:rgb(98.039216%,93.725491%,87.058824%);fill-opacity:1;" d="M 10.429688 15.382812 C 10.257812 15.382812 9.710938 14.933594 9.429688 13.867188 C 9.144531 12.800781 9.402344 12.082031 9.53125 12.046875 C 9.53125 12.046875 10.570312 11.867188 10.582031 11.660156 C 10.597656 11.359375 10.628906 11.0625 10.679688 10.769531 C 10.710938 10.453125 10.695312 10.132812 10.636719 9.820312 C 10.492188 8.835938 10.46875 7.835938 10.566406 6.847656 C 10.75 5 11.835938 3.898438 13.46875 3.898438 C 13.59375 3.898438 13.714844 3.859375 13.8125 3.785156 C 14.921875 3.097656 16.199219 2.734375 17.5 2.734375 L 18.078125 2.734375 C 21.589844 2.734375 24.09375 4.527344 25.160156 7.695312 C 24.761719 7.652344 24.894531 7.929688 24.613281 8.203125 C 24.335938 8.476562 23.640625 8.585938 23.902344 9.296875 C 24.222656 10.042969 24.40625 10.84375 24.449219 11.652344 C 24.449219 11.863281 25.488281 11.496094 25.5 11.496094 C 25.644531 11.542969 25.894531 12.792969 25.605469 13.863281 C 25.308594 14.675781 24.851562 15.417969 24.265625 16.050781 C 24.265625 16.050781 23.0625 18.179688 22.773438 18.652344 C 21.496094 20.75 19.621094 22.371094 17.53125 22.371094 C 14.542969 22.371094 11.988281 19.058594 11.015625 15.78125 C 10.933594 15.53125 10.691406 15.367188 10.429688 15.382812 Z M 10.429688 15.382812 "/>
<path style=" stroke:none;fill-rule:nonzero;fill:rgb(80.000001%,80.000001%,80.000001%);fill-opacity:1;" d="M 10.582031 11.652344 C 10.582031 11.652344 10.121094 10.296875 10.675781 10.171875 C 12.28125 9.792969 13.582031 8.621094 14.125 7.066406 C 16.011719 7.695312 15.410156 9.148438 23.171875 8.761719 C 23.5 8.761719 24.265625 10.71875 24.640625 10.695312 C 24.734375 10.695312 27.222656 12.554688 24.230469 16.0625 C 23.53125 16.882812 22.726562 18.25 22.832031 19.140625 C 23.027344 20.820312 25.976562 21.410156 26.046875 21.40625 C 26.28125 21.40625 30.65625 19.519531 30.59375 19.382812 C 28.359375 14.738281 26.507812 8.832031 26.710938 8.640625 C 27.058594 8.308594 26.222656 7.296875 26.710938 7.351562 C 25.441406 3.460938 22.335938 1.132812 18.046875 1.132812 L 16.953125 0.546875 C 13.125 0.546875 9.050781 3.898438 8.820312 6.15625 C 8.65625 7.796875 5.910156 15.953125 6.015625 16.746094 C 6.015625 16.746094 4.375 18.25 4.890625 19.6875 C 7.261719 21.398438 11.042969 20.957031 12.578125 19.6875 C 12.894531 19.425781 10.527344 15.859375 9.601562 15.109375 C 9.101562 14.699219 9.214844 12.167969 9.570312 11.761719 C 10.320312 10.898438 10.582031 11.652344 10.582031 11.652344 Z M 10.582031 11.652344 "/>
<path style=" stroke:none;fill-rule:nonzero;fill:rgb(55.29412%,42.352942%,62.352943%);fill-opacity:1;" d="M 25.703125 29.53125 C 25.402344 29.53125 25.15625 29.777344 25.15625 30.078125 L 25.15625 31.171875 C 25.15625 31.472656 25.402344 31.71875 25.703125 31.71875 C 26.003906 31.71875 26.25 31.472656 26.25 31.171875 L 26.25 30.078125 C 26.25 29.777344 26.003906 29.53125 25.703125 29.53125 Z M 28.4375 29.53125 C 28.136719 29.53125 27.890625 29.777344 27.890625 30.078125 L 27.890625 31.171875 C 27.890625 31.472656 28.136719 31.71875 28.4375 31.71875 C 28.738281 31.71875 28.984375 31.472656 28.984375 31.171875 L 28.984375 30.078125 C 28.984375 29.777344 28.738281 29.53125 28.4375 29.53125 Z M 30.625 30.078125 L 30.625 31.171875 C 30.625 31.472656 30.871094 31.71875 31.171875 31.71875 C 31.472656 31.71875 31.71875 31.472656 31.71875 31.171875 L 31.71875 30.078125 C 31.71875 29.777344 31.472656 29.53125 31.171875 29.53125 C 30.871094 29.53125 30.625 29.777344 30.625 30.078125 Z M 22.96875 29.53125 C 22.667969 29.53125 22.421875 29.777344 22.421875 30.078125 L 22.421875 31.171875 C 22.421875 31.472656 22.667969 31.71875 22.96875 31.71875 C 23.269531 31.71875 23.515625 31.472656 23.515625 31.171875 L 23.515625 30.078125 C 23.515625 29.777344 23.269531 29.53125 22.96875 29.53125 Z M 20.234375 29.53125 C 19.933594 29.53125 19.6875 29.777344 19.6875 30.078125 L 19.6875 31.171875 C 19.6875 31.472656 19.933594 31.71875 20.234375 31.71875 C 20.535156 31.71875 20.78125 31.472656 20.78125 31.171875 L 20.78125 30.078125 C 20.78125 29.777344 20.535156 29.53125 20.234375 29.53125 Z M 17.5 28.4375 C 17.199219 28.4375 16.953125 28.683594 16.953125 28.984375 L 16.953125 31.171875 C 16.953125 31.472656 17.199219 31.71875 17.5 31.71875 C 17.800781 31.71875 18.046875 31.472656 18.046875 31.171875 L 18.046875 28.984375 C 18.046875 28.683594 17.800781 28.4375 17.5 28.4375 Z M 14.765625 29.53125 C 14.464844 29.53125 14.21875 29.777344 14.21875 30.078125 L 14.21875 31.171875 C 14.21875 31.472656 14.464844 31.71875 14.765625 31.71875 C 15.066406 31.71875 15.3125 31.472656 15.3125 31.171875 L 15.3125 30.078125 C 15.3125 29.777344 15.066406 29.53125 14.765625 29.53125 Z M 12.03125 29.53125 C 11.730469 29.53125 11.484375 29.777344 11.484375 30.078125 L 11.484375 31.171875 C 11.484375 31.472656 11.730469 31.71875 12.03125 31.71875 C 12.332031 31.71875 12.578125 31.472656 12.578125 31.171875 L 12.578125 30.078125 C 12.578125 29.777344 12.332031 29.53125 12.03125 29.53125 Z M 9.296875 29.53125 C 8.996094 29.53125 8.75 29.777344 8.75 30.078125 L 8.75 31.171875 C 8.75 31.472656 8.996094 31.71875 9.296875 31.71875 C 9.597656 31.71875 9.84375 31.472656 9.84375 31.171875 L 9.84375 30.078125 C 9.84375 29.777344 9.597656 29.53125 9.296875 29.53125 Z M 6.5625 29.53125 C 6.261719 29.53125 6.015625 29.777344 6.015625 30.078125 L 6.015625 31.171875 C 6.015625 31.472656 6.261719 31.71875 6.5625 31.71875 C 6.863281 31.71875 7.109375 31.472656 7.109375 31.171875 L 7.109375 30.078125 C 7.109375 29.777344 6.863281 29.53125 6.5625 29.53125 Z M 3.828125 29.53125 C 3.527344 29.53125 3.28125 29.777344 3.28125 30.078125 L 3.28125 31.171875 C 3.28125 31.472656 3.527344 31.71875 3.828125 31.71875 C 4.128906 31.71875 4.375 31.472656 4.375 31.171875 L 4.375 30.078125 C 4.375 29.777344 4.128906 29.53125 3.828125 29.53125 Z M 12.773438 9.203125 C 12.898438 9.285156 13.046875 9.3125 13.1875 9.28125 C 13.332031 9.253906 13.457031 9.167969 13.535156 9.046875 L 14.410156 7.714844 L 15.261719 8.132812 C 16.832031 8.894531 18.550781 9.292969 20.292969 9.296875 L 21.6875 9.296875 C 21.992188 9.296875 22.234375 9.050781 22.234375 8.75 C 22.234375 8.449219 21.992188 8.203125 21.6875 8.203125 L 20.292969 8.203125 C 18.71875 8.199219 17.164062 7.84375 15.746094 7.152344 L 14.890625 6.738281 C 14.394531 6.496094 13.800781 6.660156 13.496094 7.121094 L 12.621094 8.449219 C 12.457031 8.699219 12.527344 9.035156 12.773438 9.203125 Z M 12.773438 9.203125 "/>
<path style=" stroke:none;fill-rule:nonzero;fill:rgb(55.29412%,42.352942%,62.352943%);fill-opacity:1;" d="M 30.488281 22.628906 L 27.785156 21.328125 C 28.601562 21.097656 29.402344 20.828125 30.1875 20.511719 C 30.640625 20.328125 30.988281 19.949219 31.132812 19.480469 C 31.277344 19.011719 31.207031 18.503906 30.9375 18.097656 L 29.917969 16.539062 C 29.246094 15.511719 28.761719 14.371094 28.488281 13.175781 L 27.246094 7.765625 C 26.328125 3.730469 22.851562 0.785156 18.71875 0.546875 C 18.164062 0.183594 17.515625 -0.0078125 16.855469 0 C 12.492188 -0.0195312 8.710938 3.011719 7.78125 7.273438 L 6.441406 13.289062 C 6.167969 14.515625 5.667969 15.679688 4.976562 16.730469 L 4.070312 18.105469 C 3.796875 18.515625 3.722656 19.023438 3.867188 19.492188 C 4.011719 19.964844 4.359375 20.34375 4.8125 20.53125 C 5.589844 20.839844 6.386719 21.105469 7.191406 21.328125 L 4.511719 22.628906 C 2.429688 23.632812 1.101562 25.742188 1.09375 28.054688 L 1.09375 32.265625 C 1.09375 33.171875 1.828125 33.90625 2.734375 33.90625 L 32.265625 33.90625 C 33.171875 33.90625 33.90625 33.171875 33.90625 32.265625 L 33.90625 28.054688 C 33.898438 25.742188 32.570312 23.632812 30.488281 22.628906 Z M 5.234375 19.519531 C 5.082031 19.453125 4.96875 19.324219 4.921875 19.167969 C 4.875 19.011719 4.898438 18.84375 4.988281 18.707031 L 5.894531 17.332031 C 6.671875 16.164062 7.226562 14.867188 7.535156 13.503906 L 8.875 7.488281 C 9.703125 3.746094 13.023438 1.085938 16.855469 1.09375 C 17.34375 1.09375 17.816406 1.253906 18.207031 1.546875 C 18.292969 1.613281 18.402344 1.652344 18.511719 1.65625 C 22.203125 1.808594 25.339844 4.410156 26.167969 8.011719 L 27.410156 13.429688 C 27.710938 14.753906 28.242188 16.011719 28.984375 17.144531 L 30.023438 18.703125 C 30.101562 18.835938 30.121094 18.992188 30.078125 19.140625 C 30.03125 19.296875 29.914062 19.421875 29.761719 19.484375 C 28.621094 19.933594 27.449219 20.300781 26.253906 20.578125 L 23.230469 19.140625 C 23.8125 18.242188 24.273438 17.273438 24.609375 16.257812 C 25.28125 16.007812 25.894531 15.164062 26.183594 14.070312 C 26.355469 13.476562 26.386719 12.851562 26.28125 12.246094 C 26.226562 11.679688 25.847656 11.195312 25.308594 11.007812 C 25.230469 10.988281 25.148438 10.972656 25.070312 10.96875 C 25.007812 10.53125 24.914062 10.101562 24.777344 9.679688 C 24.6875 9.390625 24.378906 9.230469 24.089844 9.324219 C 23.800781 9.417969 23.640625 9.726562 23.734375 10.011719 C 23.917969 10.566406 24.027344 11.140625 24.0625 11.71875 C 24.074219 11.914062 24.183594 12.089844 24.359375 12.179688 C 24.53125 12.265625 24.742188 12.257812 24.90625 12.152344 C 24.949219 12.121094 25 12.097656 25.050781 12.085938 C 25.078125 12.085938 25.183594 12.207031 25.238281 12.484375 C 25.308594 12.929688 25.28125 13.382812 25.15625 13.8125 C 24.886719 14.820312 24.367188 15.246094 24.210938 15.246094 C 23.960938 15.234375 23.734375 15.394531 23.664062 15.636719 C 22.746094 18.734375 20.332031 21.875 17.5 21.875 C 14.667969 21.875 12.253906 18.734375 11.335938 15.640625 C 11.265625 15.402344 11.039062 15.242188 10.789062 15.253906 C 10.632812 15.253906 10.113281 14.824219 9.84375 13.820312 C 9.71875 13.390625 9.691406 12.9375 9.761719 12.496094 C 9.816406 12.21875 9.921875 12.101562 9.941406 12.097656 C 9.996094 12.105469 10.046875 12.128906 10.089844 12.164062 C 10.253906 12.273438 10.46875 12.28125 10.644531 12.191406 C 10.820312 12.097656 10.933594 11.917969 10.9375 11.71875 C 10.964844 11.152344 11.066406 10.589844 11.238281 10.046875 C 11.328125 9.757812 11.167969 9.449219 10.878906 9.359375 C 10.589844 9.269531 10.285156 9.429688 10.195312 9.71875 C 10.0625 10.136719 9.96875 10.5625 9.910156 10.996094 C 9.828125 11 9.746094 11.015625 9.667969 11.035156 C 9.132812 11.222656 8.75 11.707031 8.695312 12.273438 C 8.589844 12.878906 8.625 13.503906 8.792969 14.097656 C 9.089844 15.191406 9.703125 16.011719 10.367188 16.285156 C 10.714844 17.292969 11.183594 18.25 11.769531 19.140625 L 8.699219 20.605469 C 7.519531 20.328125 6.359375 19.964844 5.234375 19.519531 Z M 32.8125 32.265625 C 32.8125 32.566406 32.566406 32.8125 32.265625 32.8125 L 2.734375 32.8125 C 2.433594 32.8125 2.1875 32.566406 2.1875 32.265625 L 2.1875 28.054688 C 2.1875 26.160156 3.277344 24.429688 4.988281 23.613281 L 12.414062 20.058594 C 13.757812 21.761719 15.53125 22.96875 17.5 22.96875 C 19.46875 22.96875 21.242188 21.761719 22.585938 20.066406 L 30.011719 23.621094 C 31.722656 24.4375 32.808594 26.160156 32.8125 28.054688 Z M 32.8125 32.265625 "/>
<path style=" stroke:none;fill-rule:nonzero;fill:rgb(55.29412%,42.352942%,62.352943%);fill-opacity:1;" d="M 11.753906 23.984375 L 17.222656 27.265625 C 17.390625 27.363281 17.597656 27.363281 17.769531 27.265625 L 23.238281 23.984375 C 23.433594 23.90625 23.566406 23.714844 23.574219 23.503906 C 23.582031 23.289062 23.46875 23.089844 23.277344 22.992188 C 23.085938 22.894531 22.859375 22.917969 22.691406 23.050781 L 17.5 26.15625 L 12.308594 23.046875 C 12.140625 22.914062 11.914062 22.890625 11.722656 22.988281 C 11.53125 23.085938 11.417969 23.285156 11.425781 23.496094 C 11.433594 23.710938 11.566406 23.898438 11.761719 23.980469 Z M 11.753906 23.984375 "/>
</g>
</svg>
