<svg xmlns="http://www.w3.org/2000/svg" x="0px" y="0px"
width="35" height="35"
viewBox="0 0 172 172"
style=" fill:#000000;"><g fill="none" fill-rule="nonzero" stroke="none" stroke-width="1" stroke-linecap="butt" stroke-linejoin="miter" stroke-miterlimit="10" stroke-dasharray="" stroke-dashoffset="0" font-family="none" font-weight="none" font-size="none" text-anchor="none" style="mix-blend-mode: normal"><path d="M0,172v-172h172v172z" fill="none"></path><g><path d="M125.56,49.88v-10.32c0,-5.70008 -4.61992,-10.32 -10.32,-10.32h-67.08c-5.70008,0 -10.32,4.61992 -10.32,10.32v92.88c0,5.70008 4.61992,10.32 10.32,10.32h67.08c5.70008,0 10.32,-4.61992 10.32,-10.32v-10.32h1.72v-72.24z" fill="#ccb9da"></path><path d="M115.24,144.48h-67.08c-6.63748,0 -12.04,-5.40252 -12.04,-12.04v-92.88c0,-6.63748 5.40252,-12.04 12.04,-12.04h67.08c6.63748,0 12.04,5.40252 12.04,12.04v10.32c0,0.95116 -0.76884,1.72 -1.72,1.72c-0.95116,0 -1.72,-0.76884 -1.72,-1.72v-10.32c0,-4.74204 -3.85796,-8.6 -8.6,-8.6h-67.08c-4.74204,0 -8.6,3.85796 -8.6,8.6v92.88c0,4.74204 3.85796,8.6 8.6,8.6h67.08c4.74204,0 8.6,-3.85796 8.6,-8.6v-10.32c0,-0.95116 0.76884,-1.72 1.72,-1.72c0.95116,0 1.72,0.76884 1.72,1.72v10.32c0,6.63748 -5.40252,12.04 -12.04,12.04z" fill="#1f212b"></path><path d="M68.8,92.88h58.48l-10.32,10.32l8.6,8.6l25.8,-25.8l-25.8,-25.8l-8.6,8.6l10.32,10.32h-58.48z" fill="#fefdef"></path><path d="M125.56,113.52c-0.44032,0 -0.88064,-0.16856 -1.21604,-0.50396l-8.6,-8.6c-0.67252,-0.67252 -0.67252,-1.75956 0,-2.43208l7.38396,-7.38396h-54.32792c-0.95116,0 -1.72,-0.76884 -1.72,-1.72v-13.76c0,-0.95116 0.76884,-1.72 1.72,-1.72h54.32792l-7.38396,-7.38396c-0.67252,-0.67252 -0.67252,-1.75956 0,-2.43208l8.6,-8.6c0.67252,-0.67252 1.75956,-0.67252 2.43208,0l25.8,25.8c0.67252,0.67252 0.67252,1.75956 0,2.43208l-25.8,25.8c-0.3354,0.3354 -0.77572,0.50396 -1.21604,0.50396zM119.39208,103.2l6.16792,6.16792l23.36792,-23.36792l-23.36792,-23.36792l-6.16792,6.16792l9.10396,9.10396c0.49192,0.49192 0.63984,1.23152 0.37324,1.8748c-0.26488,0.64328 -0.8944,1.06124 -1.58928,1.06124h-56.76v10.32h56.76c0.69488,0 1.3244,0.41796 1.58928,1.06124c0.2666,0.64328 0.11868,1.38288 -0.37324,1.8748z" fill="#1f212b"></path><path d="M109.22,134.16h-55.04c-4.26732,0 -7.74,-3.47268 -7.74,-7.74v-80.84c0,-4.26732 3.47268,-7.74 7.74,-7.74h29.24c0.47472,0 0.86,0.38528 0.86,0.86c0,0.47472 -0.38528,0.86 -0.86,0.86h-29.24c-3.3196,0 -6.02,2.7004 -6.02,6.02v80.84c0,3.3196 2.7004,6.02 6.02,6.02h55.04c3.3196,0 6.02,-2.7004 6.02,-6.02v-5.16c0,-0.47472 0.38528,-0.86 0.86,-0.86c0.47472,0 0.86,0.38528 0.86,0.86v5.16c0,4.26732 -3.47268,7.74 -7.74,7.74z" fill="#1f212b"></path><path d="M93.74,39.56h-6.88c-0.47472,0 -0.86,-0.38528 -0.86,-0.86c0,-0.47472 0.38528,-0.86 0.86,-0.86h6.88c0.47472,0 0.86,0.38528 0.86,0.86c0,0.47472 -0.38528,0.86 -0.86,0.86z" fill="#1f212b"></path><path d="M98.9,39.56h-1.72c-0.47472,0 -0.86,-0.38528 -0.86,-0.86c0,-0.47472 0.38528,-0.86 0.86,-0.86h1.72c0.47472,0 0.86,0.38528 0.86,0.86c0,0.47472 -0.38528,0.86 -0.86,0.86z" fill="#1f212b"></path></g></g></svg>